<svg width="223" height="29" viewBox="0 0 223 29" fill="none" xmlns="http://www.w3.org/2000/svg">
<path d="M23.1178 26.2485H15.6777L6.94606 16.1959V26.2485H1.54654V2.55075H6.94606V12.2302L15.0762 2.55075H21.6249L12.0878 13.7821L23.1178 26.2485Z" fill="white"/>
<path d="M24.6376 3.29983C25.2317 2.70578 25.9405 2.40842 26.7641 2.40842C27.5871 2.40842 28.2959 2.70578 28.8906 3.29983C29.4847 3.89255 29.7821 4.60071 29.7821 5.42366C29.7821 6.24729 29.4847 6.95612 28.8906 7.55018C28.2959 8.14289 27.5871 8.43891 26.7641 8.43891C25.9405 8.43891 25.2317 8.14289 24.6376 7.55018C24.0449 6.95612 23.7489 6.24729 23.7489 5.42366C23.7489 4.60071 24.0449 3.89255 24.6376 3.29983ZM24.1516 11.5132V26.2485H29.2343V11.5132H24.1516Z" fill="white"/>
<path d="M39.2324 11.081C40.0735 11.081 40.9058 11.177 41.7295 11.3683C42.5524 11.5602 43.1659 11.7515 43.5687 11.9428L44.1728 12.2301L42.5054 15.5622C41.3562 14.95 40.2648 14.6439 39.2324 14.6439C38.6578 14.6439 38.2504 14.707 38.0107 14.8319C37.7704 14.9554 37.6509 15.1903 37.6509 15.5354C37.6509 15.6105 37.6603 15.6871 37.6805 15.7636C37.6999 15.8408 37.7382 15.9133 37.7959 15.9811C37.853 16.0475 37.9047 16.1046 37.9517 16.1529C38 16.1999 38.0812 16.2523 38.196 16.3113C38.3121 16.3691 38.4034 16.412 38.4699 16.4402C38.5357 16.4691 38.6457 16.512 38.8001 16.5691C38.9538 16.6268 39.0686 16.6698 39.1438 16.698C39.2203 16.7268 39.3492 16.7698 39.5304 16.8268C39.713 16.8846 39.8526 16.9228 39.9493 16.9423C40.5434 17.1141 41.0609 17.3061 41.5012 17.5169C41.9416 17.7263 42.4047 18.0136 42.8921 18.3788C43.3807 18.7426 43.7593 19.2017 44.0278 19.7562C44.2963 20.3113 44.4306 20.9429 44.4306 21.6518C44.4306 25.0027 42.1033 26.6781 37.4496 26.6781C36.3971 26.6781 35.3962 26.5156 34.4477 26.1921C33.5006 25.8666 32.8159 25.541 32.3937 25.2148L31.7628 24.6966L33.8302 21.2222C33.9839 21.3564 34.1853 21.5148 34.4343 21.6974C34.6827 21.8787 35.1331 22.127 35.7849 22.4439C36.436 22.7593 37.0012 22.9164 37.4791 22.9164C38.5316 22.9164 39.0579 22.562 39.0579 21.8532C39.0579 21.5276 38.9236 21.2745 38.6551 21.0933C38.388 20.9107 37.9335 20.7053 37.2912 20.4758C36.6501 20.2448 36.148 20.0341 35.7849 19.8421C34.8646 19.3642 34.1363 18.8238 33.5993 18.2204C33.0636 17.6176 32.7965 16.8181 32.7965 15.8227C32.7965 14.3285 33.3751 13.1645 34.5337 12.3322C35.6936 11.4985 37.2596 11.081 39.2324 11.081Z" fill="white"/>
<path d="M47.962 24.4254C46.5833 22.9218 45.8946 21.0792 45.8946 18.897C45.8946 16.7134 46.5833 14.8655 47.962 13.3525C49.3421 11.8381 51.0941 11.081 53.2192 11.081C55.1719 11.081 56.7802 11.6945 58.0442 12.9202V11.5132H63.1295V26.2485H58.1032V24.5838H58.0442C56.7802 25.98 55.1719 26.6781 53.2192 26.6781C51.0941 26.6781 49.3421 25.9276 47.962 24.4254ZM52.2848 16.3973C51.6243 17.047 51.2941 17.8794 51.2941 18.8943C51.2941 19.9092 51.6096 20.7382 52.2419 21.3806C52.8735 22.0216 53.7065 22.3418 54.7416 22.3418C55.7364 22.3418 56.5547 22.0169 57.1957 21.3672C57.8381 20.7161 58.1596 19.8918 58.1596 18.8943C58.1596 17.8794 57.8294 17.047 57.1688 16.3973C56.5083 15.7461 55.6988 15.4199 54.7416 15.4199C53.7643 15.4199 52.9454 15.7461 52.2848 16.3973Z" fill="white"/>
<path d="M67.5799 24.4254C66.2012 22.9218 65.5125 21.0792 65.5125 18.897C65.5125 16.7134 66.2012 14.8655 67.5799 13.3525C68.96 11.8381 70.712 11.081 72.8371 11.081C74.7898 11.081 76.3981 11.6945 77.6621 12.9202V11.5132H82.7474V26.2485H77.7211V24.5838H77.6621C76.3981 25.98 74.7898 26.6781 72.8371 26.6781C70.712 26.6781 68.96 25.9276 67.5799 24.4254ZM71.9028 16.3973C71.2422 17.047 70.912 17.8794 70.912 18.8943C70.912 19.9092 71.2275 20.7382 71.8598 21.3806C72.4914 22.0216 73.3245 22.3418 74.3595 22.3418C75.3543 22.3418 76.1726 22.0169 76.8136 21.3672C77.456 20.7161 77.7775 19.8918 77.7775 18.8943C77.7775 17.8794 77.4473 17.047 76.7868 16.3973C76.1262 15.7461 75.3167 15.4199 74.3595 15.4199C73.3822 15.4199 72.5633 15.7461 71.9028 16.3973Z" fill="white"/>
<path d="M86.1936 26.2485V11.5132H91.2763V13.0652H91.3354C92.6564 11.7428 94.0633 11.081 95.5562 11.081C96.2845 11.081 97.0074 11.177 97.7257 11.3683C98.4432 11.5602 99.1326 11.8569 99.7931 12.2597C100.454 12.6624 100.989 13.233 101.401 13.97C101.813 14.7057 102.019 15.5622 102.019 16.5396V26.2485H96.9363V17.9196C96.9363 17.1537 96.6919 16.4832 96.2033 15.9086C95.7146 15.334 95.0783 15.0467 94.2942 15.0467C93.5277 15.0467 92.8336 15.3441 92.2107 15.9381C91.5878 16.5308 91.2763 17.1913 91.2763 17.9196V26.2485H86.1936Z" fill="white"/>
<path d="M124.771 26.2485L123.652 12.2033H123.507L118.652 26.1062H115.436L110.581 12.2033H110.439L109.317 26.2485H103.917L106.043 2.55075H111.787L117.044 16.2227L122.301 2.55075H128.044L130.171 26.2485H124.771Z" fill="white"/>
<path d="M132.84 3.29983C133.434 2.70578 134.143 2.40842 134.966 2.40842C135.789 2.40842 136.498 2.70578 137.093 3.29983C137.687 3.89255 137.984 4.60071 137.984 5.42366C137.984 6.24729 137.687 6.95612 137.093 7.55018C136.498 8.14289 135.789 8.43891 134.966 8.43891C134.143 8.43891 133.434 8.14289 132.84 7.55018C132.247 6.95612 131.951 6.24729 131.951 5.42366C131.951 4.60071 132.247 3.89255 132.84 3.29983ZM132.354 11.5132V26.2485H137.436V11.5132H132.354Z" fill="white"/>
<path d="M141.89 11.5133V6.02783H146.973V11.5133H150.077V15.3904H146.973V20.073C146.973 21.4316 147.355 22.1109 148.122 22.1109C148.313 22.1109 148.515 22.0734 148.726 21.9982C148.937 21.9217 149.1 21.8445 149.215 21.7673L149.386 21.6518L150.651 25.7598C149.559 26.372 148.314 26.6781 146.916 26.6781C145.958 26.6781 145.135 26.5103 144.446 26.176C143.757 25.8417 143.235 25.392 142.881 24.8282C142.526 24.263 142.272 23.6682 142.118 23.0453C141.966 22.4224 141.89 21.7579 141.89 21.0504V15.3904H139.763V11.5133H141.89Z" fill="white"/>
<path d="M152.374 26.2485V1.54654H157.456V13.0652H157.515C158.836 11.7428 160.243 11.081 161.736 11.081C162.465 11.081 163.188 11.1769 163.906 11.3682C164.623 11.5602 165.313 11.8569 165.973 12.2597C166.634 12.6624 167.169 13.233 167.582 13.97C167.993 14.7057 168.199 15.5622 168.199 16.5395V26.2485H163.116V17.9196C163.116 17.1537 162.872 16.4832 162.383 15.9086C161.895 15.334 161.258 15.0467 160.474 15.0467C159.708 15.0467 159.014 15.344 158.391 15.9381C157.768 16.5308 157.456 17.1913 157.456 17.9196V26.2485H152.374Z" fill="white"/>
<path d="M171.36 26.2485V11.5132H176.442V13.6398H176.501C176.539 13.5632 176.601 13.4673 176.687 13.3525C176.773 13.2363 176.959 13.035 177.245 12.7483C177.533 12.4604 177.84 12.2019 178.166 11.9724C178.492 11.7435 178.913 11.5374 179.431 11.3548C179.948 11.1723 180.474 11.081 181.01 11.081C181.566 11.081 182.112 11.1582 182.647 11.3119C183.184 11.4663 183.577 11.6193 183.826 11.771L184.229 12.0019L182.102 16.3086C181.47 15.7737 180.589 15.5058 179.46 15.5058C178.846 15.5058 178.319 15.6401 177.879 15.9086C177.439 16.1757 177.127 16.5006 176.944 16.8832C176.763 17.2665 176.634 17.5921 176.558 17.8606C176.481 18.1291 176.442 18.3405 176.442 18.4942V26.2485H171.36Z" fill="white"/>
<path d="M186.668 24.4254C185.289 22.9218 184.601 21.0792 184.601 18.897C184.601 16.7134 185.289 14.8655 186.668 13.3525C188.048 11.8381 189.8 11.081 191.925 11.081C193.878 11.081 195.486 11.6945 196.75 12.9202V11.5132H201.836V26.2485H196.809V24.5838H196.75C195.486 25.98 193.878 26.6781 191.925 26.6781C189.8 26.6781 188.048 25.9276 186.668 24.4254ZM190.991 16.3973C190.33 17.047 190 17.8794 190 18.8943C190 19.9092 190.316 20.7382 190.948 21.3806C191.58 22.0216 192.413 22.3418 193.448 22.3418C194.442 22.3418 195.261 22.0169 195.902 21.3672C196.544 20.7161 196.866 19.8918 196.866 18.8943C196.866 17.8794 196.535 17.047 195.875 16.3973C195.214 15.7461 194.405 15.4199 193.448 15.4199C192.47 15.4199 191.651 15.7461 190.991 16.3973Z" fill="white"/>
<path d="M206.286 24.4254C204.907 22.9218 204.218 21.0792 204.218 18.897C204.218 16.7134 204.907 14.8655 206.286 13.3525C207.666 11.8381 209.418 11.081 211.543 11.081C213.496 11.081 215.104 11.6945 216.368 12.9202V11.5132H221.453V26.2485H216.427V24.5838H216.368C215.104 25.98 213.496 26.6781 211.543 26.6781C209.418 26.6781 207.666 25.9276 206.286 24.4254ZM210.609 16.3973C209.948 17.047 209.618 17.8794 209.618 18.8943C209.618 19.9092 209.933 20.7382 210.566 21.3806C211.197 22.0216 212.03 22.3418 213.066 22.3418C214.06 22.3418 214.879 22.0169 215.52 21.3672C216.162 20.7161 216.484 19.8918 216.484 18.8943C216.484 17.8794 216.153 17.047 215.493 16.3973C214.832 15.7461 214.023 15.4199 213.066 15.4199C212.088 15.4199 211.269 15.7461 210.609 16.3973Z" fill="white"/>
</svg>
