<svg width="724" height="448" viewBox="0 0 724 448" fill="none" xmlns="http://www.w3.org/2000/svg">
<path d="M223.671 1.35443C218.871 2.68777 213.671 8.15445 203.138 23.0878C199.138 28.6878 190.871 40.0211 184.738 48.2878C178.604 56.5544 169.404 69.0878 164.071 76.2878C158.738 83.3544 151.138 93.7545 147.138 99.0878C143.138 104.554 138.738 110.421 137.538 112.154C136.338 113.888 130.604 121.621 124.871 129.354C119.138 137.088 110.604 148.954 105.804 155.621C101.004 162.288 96.3376 167.754 95.5376 167.754C94.2043 167.888 93.8043 152.021 93.671 92.8211C93.671 51.6211 93.271 15.4878 92.7376 12.6878C92.071 9.2211 90.6043 6.55444 88.071 4.68777C84.471 2.02112 82.6043 1.88776 42.471 1.48776C9.0043 1.2211 0.604297 1.48776 0.0709634 2.95444C-0.329037 3.88776 1.0043 9.2211 3.0043 14.5544L6.47096 24.5544L6.87096 218.821C7.13763 424.154 7.4043 416.688 1.53763 436.954C-1.26237 446.821 -1.3957 446.821 44.471 446.288C85.9376 445.888 87.9376 445.621 91.4043 439.488C92.7376 437.221 93.271 418.688 93.5376 358.688L93.9376 280.821L104.204 266.954C112.738 255.488 114.738 253.621 115.804 255.488C117.804 258.821 138.338 289.488 148.204 303.888C153.004 310.821 162.471 324.688 169.271 334.554C189.271 363.888 218.871 407.088 220.071 408.554C220.604 409.354 225.271 416.154 230.471 423.754C241.671 440.288 244.871 443.221 254.604 445.221C265.804 447.621 336.604 446.554 339.671 444.021C340.871 442.954 341.671 441.488 341.404 440.554C341.004 439.754 334.738 430.688 327.538 420.421C320.204 410.288 310.204 395.888 305.138 388.554C300.071 381.221 292.738 370.688 288.871 365.221C282.071 355.354 277.938 349.488 254.738 315.621C227.538 276.021 215.004 257.621 188.738 218.554C170.604 191.488 168.871 188.421 170.204 185.754C171.138 184.021 177.404 175.621 184.071 166.954C196.338 151.354 214.071 128.421 220.471 119.888C222.338 117.488 228.338 109.621 233.804 102.421C239.271 95.2211 247.138 84.6878 251.138 79.2211C255.138 73.6211 259.671 67.3544 261.138 65.4878C271.138 52.4211 300.738 11.7544 303.004 7.62109C305.938 2.82111 305.938 2.68777 303.271 1.35443C300.071 -0.512238 229.671 -0.378906 223.671 1.35443Z" fill="#1F844A"/>
<path d="M627.004 1.48767C624.338 2.15433 620.604 4.28766 618.738 6.28766C615.671 9.48767 602.338 33.3543 555.271 119.888C546.738 135.621 535.671 156.821 530.738 167.088C525.804 177.221 521.404 185.354 521.138 184.954C520.471 184.288 500.604 145.221 459.671 63.8877C432.338 9.35434 429.271 4.68768 419.671 2.42102C416.738 1.8877 396.338 1.22101 374.071 1.22101H333.804L332.738 4.15433C332.071 5.88766 331.804 30.9543 331.804 59.8877C331.938 88.821 331.671 115.488 331.138 119.221C330.471 122.821 328.471 131.621 326.604 138.554C310.204 197.221 304.471 230.688 304.471 266.421C304.471 299.488 310.338 325.488 323.271 349.888C333.138 368.421 352.604 390.954 371.804 405.888C385.671 416.688 410.204 431.354 424.871 437.621C438.204 443.354 461.138 447.888 477.138 447.888H487.004L490.604 441.488C501.138 422.821 507.404 415.488 538.604 384.554C557.271 366.021 572.338 349.888 574.338 346.288C580.204 336.021 587.004 318.688 589.271 307.888C591.671 296.821 592.338 274.154 590.738 262.288L589.671 254.688L573.138 268.021C551.538 285.488 537.538 300.554 523.404 321.754C511.938 339.088 496.604 367.621 491.538 381.221C490.071 385.221 488.204 388.688 487.538 388.821C486.738 389.088 485.804 382.954 485.271 373.621C483.271 340.421 476.471 306.688 467.404 285.888C461.938 273.221 450.471 256.688 442.071 249.354C432.204 240.688 414.471 231.488 401.138 228.154C395.271 226.688 389.271 224.954 387.938 224.421C385.671 223.488 385.538 223.888 386.338 228.688C387.671 235.488 396.471 262.021 401.538 274.154C408.071 289.888 418.738 308.021 427.271 317.888C458.738 354.154 472.471 384.021 472.471 416.821V425.221L453.671 412.821C443.404 406.154 426.738 395.221 416.738 388.554C385.538 368.154 360.738 340.288 353.804 317.888C352.871 314.954 351.671 311.888 351.004 311.221C349.004 308.554 343.138 276.154 343.138 267.354C343.138 250.288 348.204 223.221 355.938 198.688C356.338 197.621 357.404 197.354 358.871 197.888C362.471 199.354 387.938 203.621 399.538 204.688L410.071 205.621L409.271 199.754C408.871 196.554 408.204 178.821 407.804 160.554C407.271 142.154 406.604 125.888 406.204 124.154C404.871 118.554 407.804 121.221 413.538 130.954C416.738 136.154 429.004 156.421 440.738 175.888C463.271 213.221 474.471 233.621 478.471 244.554C479.804 248.154 481.404 251.754 481.804 252.554C485.938 258.421 495.004 302.554 495.138 316.821C495.138 320.021 495.804 322.554 496.471 322.554C497.271 322.554 497.804 321.888 497.804 320.954C497.804 318.821 514.338 294.021 521.671 285.221C525.004 281.221 534.738 270.421 543.404 261.221C573.671 228.821 583.538 214.021 626.738 136.821C630.738 129.754 634.204 123.888 634.338 123.888C634.471 123.888 634.471 194.288 634.471 280.288C634.471 455.621 633.671 442.288 644.071 445.088C647.004 445.888 664.071 446.554 684.338 446.554C715.004 446.554 719.938 446.288 721.938 444.421C724.071 442.421 724.204 441.888 722.471 438.688C716.338 426.688 716.471 432.421 716.471 210.688C716.471 6.42102 716.471 2.68768 713.938 1.22101C710.604 -0.512329 633.671 -0.378998 627.004 1.48767Z" fill="#1F844A"/>
</svg>
